inDegrees=no
num_controls=7
num_derivatives=13
num_iterations=121
num_multipliers=7
num_parameters=0
num_slacks=7
num_states=26
objective=0.444918
objective_accelerations=0.058519
objective_balance=0.003627
objective_effort=0.023481
objective_height=0.353801
objective_ligament=0.005489
solver_duration=1728.131196
status=Solve_Succeeded
success=true
DataType=double
version=3
OpenSimVersion=4.5
endheader
time	/jointset/ground_pelvis/pelvis_tilt/value	/jointset/ground_pelvis/pelvis_tx/value	/jointset/ground_pelvis/pelvis_ty/value	/jointset/hip_l/hip_flexion_l/value	/jointset/hip_l/hip_adduction_l/value	/jointset/hip_l/hip_rotation_l/value	/jointset/back/lumbar_extension/value	/jointset/patellofemoral_l/patellar_flexion_l/value	/jointset/knee_l/knee_flexion_l/value	/jointset/knee_l/knee_adduction_l/value	/jointset/knee_l/knee_rotation_l/value	/jointset/ankle_l/ankle_angle_l/value	/jointset/subtalar_l/subtalar_angle_l/value	/jointset/ground_pelvis/pelvis_tilt/speed	/jointset/ground_pelvis/pelvis_tx/speed	/jointset/ground_pelvis/pelvis_ty/speed	/jointset/hip_l/hip_flexion_l/speed	/jointset/hip_l/hip_adduction_l/speed	/jointset/hip_l/hip_rotation_l/speed	/jointset/back/lumbar_extension/speed	/jointset/patellofemoral_l/patellar_flexion_l/speed	/jointset/knee_l/knee_flexion_l/speed	/jointset/knee_l/knee_adduction_l/speed	/jointset/knee_l/knee_rotation_l/speed	/jointset/ankle_l/ankle_angle_l/speed	/jointset/subtalar_l/subtalar_angle_l/speed	/forceset/tau_hip_flexion_l	/forceset/tau_hip_adduction_l	/forceset/tau_hip_rotation_l	/forceset/tau_knee_flexion_l	/forceset/tau_ankle_angle_l	/forceset/tau_subtalar_angle_l	/forceset/tau_lumbar_extension	lambda_cid13_p0	lambda_cid13_p1	lambda_cid13_p2	lambda_cid13_p3	lambda_cid13_p4	lambda_cid13_p5	lambda_cid14_p0	/jointset/ground_pelvis/pelvis_tilt/accel	/jointset/ground_pelvis/pelvis_tx/accel	/jointset/ground_pelvis/pelvis_ty/accel	/jointset/hip_l/hip_flexion_l/accel	/jointset/hip_l/hip_adduction_l/accel	/jointset/hip_l/hip_rotation_l/accel	/jointset/back/lumbar_extension/accel	/jointset/patellofemoral_l/patellar_flexion_l/accel	/jointset/knee_l/knee_flexion_l/accel	/jointset/knee_l/knee_adduction_l/accel	/jointset/knee_l/knee_rotation_l/accel	/jointset/ankle_l/ankle_angle_l/accel	/jointset/subtalar_l/subtalar_angle_l/accel	gamma_cid13_p0	gamma_cid13_p1	gamma_cid13_p2	gamma_cid13_p3	gamma_cid13_p4	gamma_cid13_p5	gamma_cid14_p0
0	-0.03963571852029463	0.06896257686262162	0.8959552855377986	0.1955287580552426	-0.3219605169597726	-0.4843203189388335	-0.1379045077516729	0.07015288079084706	0.07015288079084844	-0.1745328716533323	-0.1187401483168257	-0.06701059314715049	0.003879777466536142	0	0	0	0	0	0	0	0	0	0	0	0	0	0.1085074310446086	-0.1036404903379237	-0.03065350682675637	-0.2365720469699905	0.1934813044127523	-0.01312190344129749	-0.05323582907746329	26.52879236707404	-1.965643693895189	3.426440504642008	-0.6520705702619649	-514.8862604250521	-83.06942803437413	-39.93884600632183	-4.595195597666535	-1.880967488456733	-0.9938328752007143	12.81768471770815	-2.14102975133385	3.406837662308087	-2.857283939658821	10.352033144524	10.35203314452259	0.7042691325096659	-0.8334563228123786	2.334153932831061	-1.079612639866021	-3.534875227681834e-08	1.192717062900708e-07	1.366858932292163e-07	1.741147853366634e-08	-3.35998691625402e-08	-5.281800145074942e-08	-8.497695631875655e-09
0.01	-0.03985488207166368	0.06886960812911207	0.8959070315163926	0.1961489360209378	-0.3220658539575332	-0.4841493755383962	-0.1380533554610701	0.07065588316009128	0.07065588316008899	-0.1745010291896637	-0.118775758292207	-0.06689884880433709	0.003824932803218977	-0.04360902237562828	-0.01852832187656305	-0.009619883741179364	0.1234931303328159	-0.02095653413134448	0.03403628825421751	-0.02950653022060839	0.1001627356384788	0.1001627356384755	0.006365029066381509	-0.007095287674152709	0.02223490035467812	-0.01091050122914743	0.1030791168586677	-0.100223380055193	-0.02954092424583345	-0.2290171444826747	0.1837039105574037	-0.01116786700905437	-0.04875500528194745	23.43414854399043	-2.368897347885665	3.600916228167593	0.8938476777970346	-515.6972316632184	-83.71563899378226	-39.94903123839926	-4.210214070434094	-1.82894733109799	-0.9414347625484585	12.03374537834445	-2.056368361991598	3.379149847028698	-2.957885814439754	9.782734741639823	9.782734741640187	0.6021364938372039	-0.643544728687061	2.151063776912274	-1.088038603948308	-7.136682427552852e-08	1.517650886195902e-07	2.088177521985767e-07	5.106038068581487e-08	-2.511719545853049e-07	-9.534732929215007e-08	-1.317726580183523e-08
0.02	-0.04050342754937351	0.06859331961806861	0.8957635049297804	0.1979877689274123	-0.3223774369201984	-0.4836426441674046	-0.13848937812291	0.07214738107933527	0.07214738107933535	-0.1744056330953046	-0.1188815170921412	-0.06656817431995167	0.003662729179708482	-0.08587638526817759	-0.03666395550678226	-0.01905451304124837	0.2437309881566815	-0.04124919298096398	0.06715759411043837	-0.0574349904883355	0.1976991100021565	0.1976991100021554	0.01271072613815431	-0.01402976490711774	0.0437860283143995	-0.02147179203866336	0.09765080267266343	-0.09680626977245818	-0.02842834166483251	-0.2214622419954079	0.1739265167020402	-0.009213830576815877	-0.04427418148647349	20.40392171183835	-2.783982106915197	3.777909971684351	2.282933556575212	-515.5659878657129	-84.19504948748876	-39.9790321341213	-4.326863701050758	-1.802429839187945	-0.9567819869786433	12.1666302159181	-2.00825469498886	3.223841182708755	-2.541669949082572	9.826760889563754	9.826760889563465	0.7004027335879086	-0.8012942345748383	2.197399453839737	-1.009770555939715	-1.073848962742387e-07	1.842584709491097e-07	2.809496111679372e-07	8.470928283796339e-08	-4.687440400080696e-07	-1.378766571335507e-07	-1.78568359717948e-08
0.03	-0.0415687863661568	0.06813797919483813	0.8955262509533026	0.2010135743761655	-0.3228885250217671	-0.4828093324896879	-0.1391962584925676	0.07460154595829242	0.0746015459582916	-0.1742467520648195	-0.1190559564596124	-0.06602487226559278	0.003397044042616769	-0.1269907728917793	-0.05430175149121921	-0.02838682006104376	0.3608608756136389	-0.06084860402922217	0.09937083736559775	-0.08369241060353722	0.2926732150455468	0.2926732150455709	0.01904430124810296	-0.02079781292152292	0.0647898338404323	-0.03158289115522422	0.09326031321010299	-0.09403671821120195	-0.02772200888807208	-0.217498093100236	0.16940749325406	-0.008322293663715006	-0.04057768688920409	19.02374316481658	-2.982878307788132	3.870570187504151	2.509823658084713	-515.4785144392225	-84.01657455188756	-40.02764815553541	-3.973047733282029	-1.72908075298341	-0.9201303583792446	11.40076425374387	-1.917860839983087	3.199943768169963	-2.630477116823782	9.263641290370428	9.263641290374361	0.596721310749477	-0.6054818335887433	2.039187631836271	-0.9994886098265272	-1.370356271257694e-07	2.046952864782536e-07	3.377344182526262e-07	1.134974564903275e-07	-6.416331437633735e-07	-1.736761435299424e-07	-2.174937847258593e-08
0.04	-0.04303915334723026	0.06750933555678099	0.8951959388468471	0.2051935979481233	-0.3235920225398658	-0.481657912805171	-0.1401582528781936	0.07799163308341568	0.07799163308341397	-0.1740251580010258	-0.1192962606569658	-0.06527406885000335	0.003032706110296979	-0.1668780181260677	-0.07132459847211596	-0.03766613903682073	0.4745746127969686	-0.07973107628703172	0.1307791954707748	-0.1084577936821337	0.3848835592346869	0.3848835592347368	0.02525333280009624	-0.02720273088454341	0.08528630056051381	-0.04120235108427556	0.08886982374758683	-0.09126716664994691	-0.0270156761113279	-0.2135339442050413	0.1648884698060867	-0.007430756750611514	-0.03688119229190335	17.70209408500915	-3.191874755907645	3.964672502992018	2.591580468048445	-514.535931679477	-83.68159235399634	-40.09331455275814	-4.081435223188106	-1.679440038479884	-0.9461843781749579	11.48340016119252	-1.864866936899131	3.062864152712289	-2.243262541761541	9.274008718713679	9.274008718713556	0.6754940219968207	-0.7286682242978955	2.095931692649505	-0.9114427184378044	-1.665550725928221e-07	2.248835130012042e-07	3.942027912778373e-07	1.421854089365104e-07	-8.136009489275959e-07	-2.093368703089112e-07	-2.562569359875503e-08
0.05	-0.04490299635900109	0.06671346701098221	0.8947728011537761	0.2104952419703805	-0.3244807516688831	-0.4801967152588178	-0.141359854582151	0.08229105024477654	0.08229105024477933	-0.1737418682379311	-0.1195994482851991	-0.06432052938734414	0.002574797784718994	-0.2056811095288906	-0.08774990883585761	-0.04697100862747934	0.5851982377204881	-0.09788963541256342	0.161325541192025	-0.1316357698096868	0.47454870041588	0.4745487004159069	0.03137536845984543	-0.03337823181049307	0.1053325042502675	-0.05029508068742689	0.08409783735963927	-0.08734831508704793	-0.02626995195645194	-0.2098263395688252	0.1608682913326933	-0.007413783724769194	-0.03299030932026466	16.50076914071706	-3.06699795212513	4.033966867679418	2.793534093356833	-513.6375924430885	-82.53741451081821	-40.17407283954257	-3.748336656770979	-1.609167588585591	-0.9242437168509549	10.7684255888086	-1.772645590449453	3.030250969948423	-2.321048553326173	8.745096081014671	8.745096081011303	0.5762531960567912	-0.5534564395265971	1.945598113084936	-0.8956325096198173	-1.839737893280179e-07	2.263522623276591e-07	4.307798315012245e-07	1.588641846173192e-07	-9.181636879913469e-07	-2.332067763587624e-07	-2.870625314560784e-08
